# AST/ASF file generated using VICON BodyLanguage
# -----------------------------------------------
:version 1.10
:name VICON
:units
  mass 1.0
  length 0.45
  angle deg
:documentation
   .ast/.asf automatically generated from VICON data using
   VICON BodyBuilder and BodyLanguage model FoxedUp or BRILLIANT.MOD
:root
   order TX TY TZ RX RY RZ
   axis XYZ
   position 0 0 0  
   orientation 0 0 0 
:bonedata
  begin
     id 1 
     name lhipjoint
     direction 0.64773 -0.699417 0.302095 
     length 2.48597 
     axis 0 0 0  XYZ
  end
  begin
     id 2 
     name lfemur
     direction 0.34202 -0.939693 0  
     length 6.71947  
     axis 0 0 20  XYZ
    dof rx ry rz
    limits (-160.0 20.0)
           (-70.0 70.0)
           (-60.0 70.0)
  end
  begin
     id 3 
     name ltibia
     direction 0.34202 -0.939693 0   
     length 8.08777   
     axis 0 0 20   XYZ
    dof rx
    limits (-10.0 170.0)
  end
  begin
     id 4 
     name lfoot
     direction 0.0808503 -0.222134 0.971658   
     length 2.08264   
     axis -90 7.62852e-016 20   XYZ
    dof rx rz
    limits (-45.0 90.0)
           (-70.0 20.0)
  end
  begin
     id 5 
     name ltoes
     direction 1.53502e-011 -4.22007e-011 1   
     length 1.04662   
     axis -90 7.62852e-016 20   XYZ
    dof rx
    limits (-90.0 20.0)
  end
  begin
     id 6 
     name rhipjoint
     direction -0.610924 -0.726792 0.313919   
     length 2.39233  
     axis 0 0 0  XYZ 
  end
  begin
     id 7 
     name rfemur
     direction -0.34202 -0.939693 0   
     length 6.96955   
     axis 0 0 -20   XYZ
    dof rx ry rz
    limits (-160.0 20.0)
           (-70.0 70.0)
           (-70.0 60.0)
  end
  begin
     id 8 
     name rtibia
     direction -0.34202 -0.939693 0   
     length 8.19584   
     axis 0 0 -20   XYZ
    dof rx
    limits (-10.0 170.0)
 end
 begin
     id 9 
     name rfoot
     direction -0.077777 -0.213691 0.9738   
     length 2.07539  
     axis -90 -7.62852e-016 -20   XYZ
    dof rx rz
    limits (-45.0 90.0)
           (-20.0 70.0)
  end
  begin
     id 10 
     name rtoes
     direction -1.53558e-011 -4.22006e-011 1   
     length 1.04381   
     axis -90 -7.62852e-016 -20   XYZ
    dof rx
    limits (-90.0 20.0)
  end
  begin
     id 11 
     name lowerback
     direction -0.00971646 0.996074 0.0879841   
     length 1.67643   
     axis 0 0 0   XYZ
    dof rx ry rz
    limits (-20.0 45.0)
           (-30.0 30.0)
           (-30.0 30.0)
  end
  begin
     id 12 
     name upperback
     direction 0.0127391 0.991676 0.128127   
     length 1.63741   
     axis 0 0 0   XYZ
    dof rx ry rz
    limits (-20.0 45.0)
           (-30.0 30.0)
           (-30.0 30.0)
  end
  begin
     id 13 
     name thorax
     direction 0.0167583 0.996049 0.0872067   
     length 1.65931   
     axis 0 0 0   XYZ
    dof rx ry rz
    limits (-20.0 45.0)
           (-30.0 30.0)
           (-30.0 30.0)
  end
  begin
     id 14 
     name lowerneck
     direction -0.0317829 0.998312 0.0486079   
     length 1.79021   
     axis 0 0 0   XYZ
    dof rx ry rz
    limits (-20.0 45.0)
           (-30.0 30.0)
           (-30.0 30.0)
  end
  begin
     id 15 
     name upperneck
     direction 0.0896851 0.972452 -0.215159   
     length 1.78797   
     axis 0 0 0   XYZ
    dof rx ry rz
    limits (-20.0 45.0)
           (-30.0 30.0)
           (-30.0 30.0)
  end
  begin
     id 16
     name head
     direction 0.0310949 0.996503 -0.0775582  
     length 1.81549  
     axis 0 0 0   XYZ
    dof rx ry rz
    limits (-20.0 45.0)
           (-30.0 30.0)
           (-30.0 30.0)
  end
  begin
     id 17 
     name lclavicle
     direction 0.853638 0.502051 -0.138733  
     length 3.31627  
     axis 0 0 0   XYZ
    dof ry rz
    limits (-20.0 10.0)
           (0.0 20.0)
  end
  begin
     id 18 
     name lhumerus
     direction 1 -4.48962e-011 -1.41788e-018   
     length 5.54893   
     axis 180 -30 -90   XYZ
    dof rx ry rz
    limits (-60.0 90.0)
           (-90.0 90.0)
           (-90.0 90.0)
  end
  begin
     id 19
     name lradius
     direction 1 -4.48962e-011 -4.95754e-027   
     length 3.02898   
     axis 180 -30 -90   XYZ
    dof rx
    limits (-10.0 170.0)
  end
  begin
     id 20
     name lwrist
     direction 1 -4.48952e-011 -1.03764e-026   
     length 1.51449   
     axis 9.09556e-015 90 90   XYZ
    dof ry
    limits (-180.0 0.0)
 end
  begin
     id 21 
     name lhand
     direction 1 -4.4902e-011 -2.07528e-026   
     length 0.640951   
     axis 1.3242e-014 90 90   XYZ
    dof rx rz
    limits (-90.0 90.0)
           (-45.0 45.0)
  end
  begin
     id 22 
     name lfingers
     direction 1 -4.49014e-011 -4.15056e-026   
     length 0.516751   
     axis 2.64841e-014 90 90   XYZ
    dof rx
    limits (0.0 90.0)
  end
  begin
     id 23
     name lthumb
     direction 0.707107 -6.35008e-011 0.707107   
     length 0.741954   
     axis -90 45 2.85299e-015   XYZ
    dof rx rz
    limits (-45.0 45.0)
           (-45.0 45.0)
  end
  begin
     id 24 
     name rclavicle
     direction -0.888531 0.455324 -0.0565039   
     length 3.20126  
     axis 0 0 0   XYZ 
    dof ry rz
    limits (-10.0 20.0)
           (-20.0 0.0)
  end
  begin
     id 25 
     name rhumerus
     direction -1 -4.48946e-011 -8.98298e-028  
     length 5.3519   
     axis 180 30 90   XYZ
    dof rx ry rz
    limits (-90.0 60.0)
           (-90.0 90.0)
           (-90.0 90.0)
  end
  begin
     id 26 
     name rradius
     direction -1 -4.4899e-011 -3.18779e-027   
     length 3.02531   
     axis 180 30 90   XYZ
    dof rx
    limits (-10.0 170.0)
  end
  begin
     id 27 
     name rwrist
     direction -1 -4.4897e-011 -1.03764e-026   
     length 1.51266   
     axis 9.09556e-015 -90 -90   XYZ
    dof ry
    limits (-180.0 0.0)
  end
  begin
     id 28
     name rhand
     direction -1 -4.48941e-011 -2.07528e-026   
     length 0.78389   
     axis 1.3242e-014 -90 -90   XYZ
    dof rx rz
    limits (-90.0 90.0)
           (-45.0 45.0)
  end
  begin
     id 29
     name rfingers
     direction -1 -4.49012e-011 -4.15056e-026   
     length 0.631992   
     axis 2.64841e-014 -90 -90   XYZ
    dof rx
    limits (0.0 90.0)
  end
  begin
     id 30
     name rthumb
     direction -0.707107 -6.3496e-011 0.707107   
     length 0.907418   
     axis -90 -45 -2.85299e-015   XYZ
    dof rx rz
    limits (-45.0 45.0)
           (-45.0 45.0)
  end
:hierarchy
  begin
    root lhipjoint rhipjoint lowerback
    lhipjoint lfemur
    lfemur ltibia
    ltibia lfoot
    lfoot ltoes
    rhipjoint rfemur
    rfemur rtibia
    rtibia rfoot
    rfoot rtoes
    lowerback upperback
    upperback thorax
    thorax lowerneck lclavicle rclavicle
    lowerneck upperneck
    upperneck head
    lclavicle lhumerus
    lhumerus lradius
    lradius lwrist
    lwrist lhand lthumb
    lhand lfingers
    rclavicle rhumerus
    rhumerus rradius
    rradius rwrist
    rwrist rhand rthumb
    rhand rfingers
  end

#!OML:ASF E:\Style3\Style3.ASF
:FULLY-SPECIFIED
:DEGREES
1314
root 0.393564 17.7877 0.618428 -101.42 89.2314 240.53
lowerback -11.3754 -1.22885 0.22083
upperback -13.5552 -0.673459 0.952607
thorax -8.04861 0.0928948 0.804961
lowerneck -13.4054 -2.52387 -5.39441
upperneck 25.3389 -4.11162 8.63129
head 10.6282 -1.19533 3.52399
rclavicle 1.45361e-014 5.96354e-016
rhumerus 89.6891 -27.7738 -41.0561
rradius 22.7165
rwrist 62.6896
rhand -36.2793 47.1011
rfingers 7.12502
rthumb -9.37926 17.3298
lclavicle 1.45361e-014 5.96354e-016
lhumerus 99.498 26.5102 60.6599
lradius 18.5372
lwrist -68.4107
lhand -39.7799 7.87131
lfingers 7.12502
lthumb -12.7556 37.4617
rfemur -16.8827 13.7821 16.6728
rtibia 15.3783
rfoot -16.4034 -22.7999
rtoes -14.5421
lfemur -8.92087 -22.7926 -11.7493
ltibia 3.49861e-014
lfoot -14.7397 23.4275
ltoes -0.915302
1315
root 0.391816 17.7871 0.618224 -101.545 89.2609 240.414
lowerback -11.3214 -1.25531 0.190827
upperback -13.5318 -0.71223 0.947914
thorax -8.05064 0.0737453 0.815661
lowerneck -13.5469 -2.49513 -5.37416
upperneck 25.3964 -4.09618 8.71155
head 10.6776 -1.1729 3.55379
rclavicle 1.19271e-015 5.06901e-015
rhumerus 88.0615 -28.1366 -38.606
rradius 23.5003
rwrist 60.9245
rhand -35.7635 45.1606
rfingers 7.12502
rthumb -8.88162 15.3676
lclavicle 1.19271e-015 5.06901e-015
lhumerus 97.1898 27.5711 56.3778
lradius 19.4938
lwrist -62.4998
lhand -37.1061 8.2097
lfingers 7.12502
lthumb -10.177 37.9435
rfemur -16.897 13.7341 16.6601
rtibia 15.4115
rfoot -16.4288 -22.7873
rtoes -14.4362
lfemur -8.91475 -22.7899 -11.7838
ltibia -1.59028e-014
lfoot -14.8029 23.4096
ltoes -0.679049
1316
root 0.391384 17.7883 0.617755 -102.945 89.223 239.005
lowerback -11.3206 -1.28802 0.212291
upperback -13.5015 -0.760899 0.955703
thorax -8.01593 0.0460287 0.810007
lowerneck -13.6131 -2.48191 -5.33745
upperneck 25.3763 -4.10124 8.77307
head 10.6844 -1.16386 3.56863
rclavicle 1.21507e-014 -9.44227e-015
rhumerus 86.328 -28.5012 -35.9698
rradius 24.3134
rwrist 59.14
rhand -34.7433 43.2576
rfingers 7.12502
rthumb -7.89706 13.4251
lclavicle 1.21507e-014 -9.44227e-015
lhumerus 94.316 28.7035 51.2115
lradius 20.693
lwrist -55.8933
lhand -34.3293 9.23288
lfingers 7.12502
lthumb -7.49743 39.08
rfemur -16.9116 13.7503 16.6862
rtibia 15.4247
rfoot -16.4727 -22.8229
rtoes -14.1676
lfemur -8.93033 -22.8136 -11.7407
ltibia 0
lfoot -14.8535 23.3744
ltoes -0.552517
1317
root 0.390263 17.7883 0.61831 -104.317 89.2197 237.64
lowerback -11.2759 -1.32774 0.202255
upperback -13.4718 -0.819363 0.945008
thorax -8.00591 0.0146245 0.802345
lowerneck -13.6275 -2.47729 -5.33459
upperneck 25.2406 -4.12402 8.8965
head 10.642 -1.16316 3.60586
rclavicle 1.29955e-014 -9.93923e-017
rhumerus 84.7658 -28.7722 -33.7507
rradius 25.0792
rwrist 57.8306
rhand -33.708 41.5601
rfingers 7.12502
rthumb -6.89767 11.6925
lclavicle 1.29955e-014 -9.93923e-017
lhumerus 91.1028 29.696 45.7207
lradius 21.9273
lwrist -49.4495
lhand -32.7449 10.6277
lfingers 7.12502
lthumb -5.96795 40.5236
rfemur -16.9091 13.725 16.6874
rtibia 15.4364
rfoot -16.4164 -22.8587
rtoes -14.4698
lfemur -8.92944 -22.8333 -11.7429
ltibia -3.02153e-014
lfoot -14.717 23.4256
ltoes -1.09797
1318
root 0.388605 17.7882 0.618241 -106.233 89.2402 235.715
lowerback -11.2382 -1.34101 0.166343
upperback -13.4368 -0.840814 0.939984
thorax -7.98571 0.00443819 0.816567
lowerneck -13.6821 -2.48493 -5.38287
upperneck 25.1053 -4.139 8.97289
head 10.607 -1.16937 3.63557
rclavicle -9.31803e-015 1.39149e-015
rhumerus 83.0992 -29.031 -31.4366
rradius 25.9223
rwrist 56.5178
rhand -32.6277 40.1454
rfingers 7.12502
rthumb -5.85482 10.2462
lclavicle -9.31803e-015 1.39149e-015
lhumerus 88.3652 30.2956 41.3012
lradius 23.0279
lwrist -43.8757
lhand -31.6982 12.1099
lfingers 7.12502
lthumb -4.95733 42.0319
rfemur -16.9181 13.6539 16.66
rtibia 15.4378
rfoot -16.3807 -22.8291
rtoes -14.7438
lfemur -8.94808 -22.8609 -11.8074
ltibia -3.18055e-015
lfoot -14.2501 23.7289
ltoes -2.81068
1319
root 0.385965 17.7883 0.618944 -108.803 89.2587 233.136
lowerback -11.1615 -1.36898 0.101426
upperback -13.4066 -0.879416 0.958189
thorax -7.99148 -0.010556 0.871402
lowerneck -13.8419 -2.49992 -5.39351
upperneck 25.0835 -4.14836 8.94075
head 10.6309 -1.17779 3.62326
rclavicle -9.16894e-015 -1.07344e-014
rhumerus 81.3691 -29.1888 -28.9286
rradius 26.7114
rwrist 54.8261
rhand -31.1257 38.6296
rfingers 7.12502
rthumb -4.40448 8.6954
lclavicle -9.16894e-015 -1.07344e-014
lhumerus 85.7815 30.7009 37.2553
lradius 24.1928
lwrist -38.3112
lhand -30.4534 13.5586
lfingers 7.12502
lthumb -3.75534 43.5053
rfemur -16.9364 13.6568 16.621
rtibia 15.4372
rfoot -16.4658 -22.7852
rtoes -14.4568
lfemur -8.97079 -22.895 -11.8691
ltibia 2.22639e-014
lfoot -13.6473 24.0339
ltoes -4.7655
1320
root 0.382812 17.7888 0.620958 -112.092 89.1876 229.835
lowerback -11.0899 -1.41116 0.0998509
upperback -13.3773 -0.93882 0.994969
thorax -7.99627 -0.0402948 0.909803
lowerneck -13.8812 -2.502 -5.3805
upperneck 24.9544 -4.13871 8.89085
head 10.5889 -1.18231 3.59933
rclavicle 9.44227e-015 -4.27387e-015
rhumerus 79.5138 -29.3504 -26.2688
rradius 27.6561
rwrist 52.9586
rhand -29.7759 36.8365
rfingers 7.12502
rthumb -3.10103 6.8793
lclavicle 9.44227e-015 -4.27387e-015
lhumerus 82.3868 31.0174 31.947
lradius 25.7719
lwrist -31.2192
lhand -29.0921 15.5486
lfingers 7.12502
lthumb -2.44062 45.5144
rfemur -16.9477 13.7023 16.6568
rtibia 15.4117
rfoot -16.4837 -22.8448
rtoes -14.4315
lfemur -9.03435 -22.946 -11.7419
ltibia 7.95139e-015
lfoot -14.2225 23.7302
ltoes -2.56955
1321
root 0.379923 17.7891 0.622355 -111.248 89.1371 230.662
lowerback -10.9928 -1.40936 0.152237
upperback -13.3711 -0.941871 0.995029
thorax -8.04441 -0.0475716 0.881788
lowerneck -13.8149 -2.49003 -5.41022
upperneck 24.7154 -4.12988 8.97539
head 10.4899 -1.17941 3.62867
rclavicle -4.5472e-015 -4.07509e-015
rhumerus 77.598 -29.4778 -23.7329
rradius 28.753
rwrist 51.0238
rhand -28.2785 34.8232
rfingers 7.12502
rthumb -1.65488 4.84986
lclavicle -4.5472e-015 -4.07509e-015
lhumerus 78.7602 31.0804 26.3341
lradius 27.5896
lwrist -23.3633
lhand -27.7111 17.5868
lfingers 7.12502
lthumb -1.10685 47.5637
rfemur -16.9521 13.643 16.7197
rtibia 15.3629
rfoot -16.3737 -22.826
rtoes -14.574
lfemur -9.07835 -22.9386 -11.623
ltibia 1.27222e-014
lfoot -14.6856 23.4514
ltoes -0.861275
1322
root 0.378667 17.7897 0.623797 -109.238 89.1218 232.655
lowerback -10.901 -1.40293 0.160066
upperback -13.3451 -0.938472 1.0047
thorax -8.06582 -0.0482483 0.888972
lowerneck -13.779 -2.48221 -5.42674
upperneck 24.4217 -4.11995 9.0271
head 10.3763 -1.18023 3.6419
rclavicle 1.16786e-015 4.27387e-015
rhumerus 75.597 -29.5443 -21.1124
rradius 29.9831
rwrist 48.6163
rhand -26.3713 32.9154
rfingers 7.12502
rthumb 0.187139 2.93575
lclavicle 1.16786e-015 4.27387e-015
lhumerus 75.5922 30.9978 21.6116
lradius 29.5084
lwrist -15.8359
lhand -25.9338 19.4041
lfingers 7.12502
lthumb 0.609652 49.383
rfemur -16.9585 13.604 16.7525
rtibia 15.3198
rfoot -16.2794 -22.811
rtoes -14.8327
lfemur -9.09075 -22.9205 -11.6261
ltibia -4.77083e-015
lfoot -14.1334 23.7642
ltoes -3.18348
1323
root 0.376471 17.7912 0.624198 -109.533 89.1079 232.311
lowerback -10.8297 -1.40526 0.179531
upperback -13.3283 -0.946664 0.997322
thorax -8.08671 -0.0560505 0.870891
lowerneck -13.8051 -2.48491 -5.37793
upperneck 24.223 -4.12045 8.98863
head 10.3074 -1.18665 3.61267
rclavicle 8.59744e-015 1.39149e-015
rhumerus 73.5206 -29.5283 -18.4204
rradius 31.2796
rwrist 45.6276
rhand -24.5959 30.7744
rfingers 7.12502
rthumb 1.90188 0.803093
lclavicle 8.59744e-015 1.39149e-015
lhumerus 73.061 30.8172 17.9909
lradius 31.4435
lwrist -8.73742
lhand -23.5752 20.6943
lfingers 7.12502
lthumb 2.88765 50.6545
rfemur -16.9984 13.6327 16.7435
rtibia 15.2702
rfoot -16.2302 -22.858
rtoes -14.7677
lfemur -9.1433 -22.9308 -11.6291
ltibia 9.54166e-015
lfoot -13.8748 23.9683
ltoes -4.34008
1324
root 0.375627 17.7911 0.624475 -108.219 89.0771 233.602
lowerback -10.7791 -1.39182 0.221836
upperback -13.2954 -0.936875 0.979839
thorax -8.07864 -0.0580922 0.829699
lowerneck -13.8088 -2.49919 -5.33245
upperneck 23.9755 -4.14591 8.99393
head 10.22 -1.20133 3.59535
rclavicle 1.56543e-015 -3.27995e-015
rhumerus 71.5065 -29.4434 -15.8857
rradius 32.6397
rwrist 42.2373
rhand -22.6383 28.5947
rfingers 7.12502
rthumb 3.79243 -1.35127
lclavicle 1.56543e-015 -3.27995e-015
lhumerus 70.7684 30.579 14.8679
lradius 33.5702
lwrist -1.62485
lhand -21.0489 22.0386
lfingers 7.12502
lthumb 5.32713 51.9516
rfemur -16.9908 13.5736 16.7946
rtibia 15.2152
rfoot -16.1036 -22.8478
rtoes -14.744
lfemur -9.16734 -22.9163 -11.5763
ltibia 2.22639e-014
lfoot -13.9507 23.9499
ltoes -3.89828
1325
root 0.374801 17.7919 0.625975 -107.066 89.0625 234.692
lowerback -10.7164 -1.38368 0.224785
upperback -13.3057 -0.928256 0.944173
thorax -8.12612 -0.0560446 0.791325
lowerneck -13.7174 -2.51058 -5.23787
upperneck 23.6492 -4.17845 9.00542
head 10.0859 -1.21766 3.56883
rclavicle -1.54058e-015 1.28216e-014
rhumerus 69.6021 -29.2704 -13.6855
rradius 34.0585
rwrist 38.8358
rhand -20.4453 26.9808
rfingers 7.12502
rthumb 5.90987 -2.91673
lclavicle -1.54058e-015 1.28216e-014
lhumerus 68.4269 30.261 11.7328
lradius 35.8444
lwrist 5.95231
lhand -18.5378 23.2084
lfingers 7.12502
lthumb 7.75129 53.0463
rfemur -17.0326 13.6274 16.7993
rtibia 15.1637
rfoot -16.106 -22.871
rtoes -14.8206
lfemur -9.23972 -22.8923 -11.5195
ltibia -1.43125e-014
lfoot -13.8678 23.956
ltoes -3.99915
1326
root 0.374558 17.7924 0.626508 -107.001 89.0507 234.716
lowerback -10.5989 -1.38294 0.225248
upperback -13.2894 -0.932839 0.925375
thorax -8.1733 -0.0613575 0.772449
lowerneck -13.6393 -2.52514 -5.02914
upperneck 23.202 -4.18626 8.79864
head 9.90252 -1.24223 3.44402
rclavicle 4.24902e-015 -3.97569e-015
rhumerus 67.9151 -29.1684 -12.0167
rradius 35.6724
rwrist 35.4396
rhand -17.9859 25.9552
rfingers 7.12502
rthumb 8.28394 -3.86237
lclavicle 4.24902e-015 -3.97569e-015
lhumerus 65.9343 30.0134 8.4464
lradius 38.222
lwrist 13.8014
lhand -16.213 24.5584
lfingers 7.12502
lthumb 9.99471 54.3011
rfemur -17.0692 13.6753 16.7818
rtibia 15.1254
rfoot -16.1249 -22.9041
rtoes -14.7804
lfemur -9.28992 -22.8882 -11.4853
ltibia 2.38542e-014
lfoot -13.8738 23.9609
ltoes -4.1059
1327
root 0.37416 17.7936 0.626508 -105.816 89.0482 235.844
lowerback -10.4984 -1.3793 0.215582
upperback -13.2418 -0.934935 0.938663
thorax -8.17457 -0.0642456 0.793113
lowerneck -13.7141 -2.5399 -4.87825
upperneck 22.803 -4.18997 8.6286
head 9.76855 -1.26238 3.34522
rclavicle -9.31803e-015 -1.88845e-015
rhumerus 66.2512 -29.128 -10.4117
rradius 37.4558
rwrist 31.7282
rhand -15.9727 25.0069
rfingers 7.12502
rthumb 10.2264 -4.72455
lclavicle -9.31803e-015 -1.88845e-015
lhumerus 63.6187 29.8088 5.63241
lradius 40.5943
lwrist 20.9654
lhand -14.0525 25.738
lfingers 7.12502
lthumb 12.0785 55.3694
rfemur -17.1258 13.6416 16.7749
rtibia 15.0831
rfoot -16.0407 -22.8664
rtoes -14.9144
lfemur -9.34949 -22.8709 -11.4908
ltibia -1.27222e-014
lfoot -13.2964 24.2762
ltoes -6.25984
